<?xml version="1.0" encoding="utf-8"?>
<!-- Generator: Adobe Illustrator 16.0.0, SVG Export Plug-In . SVG Version: 6.00 Build 0)  -->
<!DOCTYPE svg PUBLIC "-//W3C//DTD SVG 1.1//EN" "http://www.w3.org/Graphics/SVG/1.1/DTD/svg11.dtd">
<svg version="1.1" id="logos" xmlns="http://www.w3.org/2000/svg" xmlns:xlink="http://www.w3.org/1999/xlink" x="0px" y="0px"
	 width="64.15px" height="50px" viewBox="814.82 1101.36 64.15 50" enable-background="new 814.82 1101.36 64.15 50"
	 xml:space="preserve">
<title>Artboard 2 copy</title>
<g>
	<path fill="#FFFFFF" d="M824.997,1112.373h6.193c0.726-0.006,1.449,0.087,2.15,0.276c0.618,0.164,1.198,0.441,1.712,0.82
		c0.481,0.366,0.87,0.84,1.133,1.385c0.289,0.617,0.432,1.293,0.416,1.975c0.038,0.913-0.267,1.806-0.855,2.504
		c-0.598,0.664-1.363,1.155-2.216,1.422v0.051c0.527,0.032,1.041,0.172,1.51,0.416c0.464,0.239,0.879,0.562,1.222,0.956
		c0.731,0.851,1.127,1.938,1.114,3.06c0.017,0.74-0.152,1.471-0.489,2.129c-0.326,0.61-0.786,1.141-1.346,1.548
		c-0.602,0.434-1.274,0.758-1.989,0.956c-0.794,0.224-1.616,0.334-2.441,0.328h-6.113V1112.373z M827.416,1119.775h3.296
		c0.433,0.001,0.864-0.045,1.286-0.141c0.379-0.082,0.737-0.24,1.054-0.466c0.3-0.217,0.545-0.5,0.717-0.83
		c0.186-0.383,0.276-0.806,0.264-1.232c0.011-0.677-0.231-1.335-0.681-1.843c-0.452-0.527-1.165-0.79-2.138-0.79h-3.798V1119.775z
		 M827.416,1128.081h3.55c0.41-0.004,0.818-0.042,1.222-0.114c0.439-0.073,0.862-0.227,1.246-0.453
		c0.391-0.231,0.726-0.544,0.982-0.919c0.288-0.458,0.43-0.994,0.402-1.535c0-1.054-0.344-1.844-1.032-2.371
		c-0.688-0.526-1.619-0.79-2.795-0.79h-3.575V1128.081z"/>
	<path fill="#FFFFFF" d="M839.725,1127.632l7.146-7.111c0.259-0.242,0.503-0.499,0.73-0.77c0.232-0.273,0.442-0.563,0.631-0.869
		c0.182-0.3,0.33-0.621,0.438-0.956c0.11-0.341,0.165-0.696,0.163-1.054c0.006-0.407-0.076-0.811-0.239-1.183
		c-0.151-0.341-0.376-0.645-0.656-0.893c-0.288-0.25-0.621-0.442-0.981-0.566c-0.384-0.135-0.79-0.203-1.196-0.201
		c-0.787-0.029-1.557,0.23-2.165,0.731c-0.59,0.52-0.973,1.234-1.083,2.015l-2.617-0.228c0.095-0.722,0.33-1.419,0.692-2.051
		c0.329-0.562,0.767-1.055,1.285-1.449c0.528-0.394,1.127-0.684,1.762-0.855c0.702-0.19,1.425-0.283,2.151-0.276
		c0.738-0.006,1.473,0.1,2.179,0.313c0.65,0.194,1.257,0.511,1.789,0.933c0.514,0.414,0.927,0.939,1.208,1.536
		c0.307,0.675,0.457,1.41,0.44,2.151c0.005,0.561-0.085,1.118-0.264,1.649c-0.173,0.508-0.407,0.994-0.692,1.448
		c-0.288,0.457-0.617,0.887-0.982,1.286c-0.369,0.402-0.755,0.796-1.158,1.182l-5.863,5.668h8.954v2.107h-11.672V1127.632z"/>
	<path fill="#FFFFFF" d="M870.033,1120.227v8.786c-0.47,0.285-0.968,0.522-1.485,0.706c-0.562,0.208-1.14,0.385-1.725,0.527
		c-0.597,0.143-1.202,0.247-1.812,0.314c-0.572,0.064-1.147,0.097-1.725,0.1c-1.389,0.023-2.766-0.238-4.05-0.764
		c-2.254-0.917-4.018-2.741-4.86-5.022c-0.43-1.147-0.647-2.362-0.643-3.587c-0.01-1.267,0.225-2.524,0.692-3.701
		c0.438-1.105,1.088-2.114,1.912-2.971c0.833-0.851,1.83-1.523,2.932-1.975c1.19-0.487,2.466-0.73,3.751-0.716
		c1.645,0,2.986,0.205,4.026,0.616c0.982,0.374,1.876,0.953,2.618,1.698l-1.712,1.844c-0.663-0.657-1.462-1.16-2.341-1.472
		c-0.836-0.279-1.711-0.42-2.592-0.417c-1.852-0.033-3.628,0.728-4.882,2.089c-0.599,0.653-1.06,1.419-1.36,2.251
		c-0.322,0.884-0.485,1.818-0.479,2.758c-0.01,0.961,0.169,1.915,0.525,2.808c0.336,0.838,0.832,1.603,1.46,2.251
		c0.624,0.64,1.368,1.15,2.191,1.499c0.867,0.367,1.802,0.551,2.744,0.54c0.814,0.004,1.629-0.076,2.428-0.239
		c0.683-0.13,1.342-0.364,1.952-0.693v-4.961h-3.951v-2.266L870.033,1120.227z"/>
	<path fill="#FFFFFF" d="M832.372,1145.844c-0.056-0.353-0.244-0.673-0.527-0.89c-0.303-0.188-0.654-0.281-1.011-0.265
		c-0.513-0.02-1,0.228-1.288,0.654c-0.143,0.208-0.246,0.442-0.306,0.689c-0.065,0.27-0.099,0.546-0.098,0.824
		c0.001,0.266,0.029,0.529,0.085,0.79c0.051,0.25,0.146,0.486,0.282,0.703c0.131,0.208,0.312,0.38,0.525,0.499
		c0.257,0.137,0.546,0.201,0.836,0.191c0.195,0.002,0.389-0.032,0.571-0.104c0.167-0.063,0.321-0.16,0.453-0.281
		c0.131-0.123,0.241-0.267,0.326-0.424c0.09-0.166,0.157-0.343,0.2-0.527h0.478c-0.053,0.23-0.133,0.456-0.238,0.67
		c-0.103,0.207-0.241,0.395-0.41,0.552c-0.18,0.165-0.391,0.293-0.619,0.377c-0.273,0.099-0.562,0.146-0.853,0.141
		c-0.334,0.009-0.665-0.063-0.965-0.21c-0.26-0.131-0.485-0.322-0.655-0.561c-0.176-0.246-0.302-0.523-0.372-0.819
		c-0.079-0.322-0.117-0.653-0.116-0.986c-0.009-0.403,0.05-0.805,0.175-1.188c0.1-0.297,0.264-0.564,0.479-0.79
		c0.2-0.204,0.447-0.357,0.719-0.447c0.292-0.095,0.597-0.143,0.903-0.14c0.235-0.003,0.47,0.029,0.695,0.098
		c0.207,0.06,0.401,0.16,0.571,0.295c0.171,0.13,0.314,0.292,0.422,0.479c0.111,0.208,0.187,0.436,0.221,0.67H832.372z"/>
	<path fill="#FFFFFF" d="M839.417,1149.316v-4.905h0.408v1.861c0.15-0.16,0.32-0.303,0.506-0.421c0.19-0.112,0.408-0.17,0.63-0.163
		c0.207-0.003,0.413,0.035,0.605,0.111c0.191,0.079,0.355,0.215,0.469,0.39c0.082,0.116,0.134,0.249,0.153,0.39
		c0.015,0.139,0.023,0.279,0.023,0.419v2.302h-0.408v-2.281c0.019-0.256-0.057-0.509-0.211-0.713
		c-0.188-0.177-0.444-0.264-0.7-0.237c-0.119-0.002-0.236,0.019-0.348,0.058c-0.103,0.036-0.196,0.088-0.282,0.152
		c-0.082,0.062-0.153,0.136-0.214,0.219c-0.058,0.081-0.104,0.17-0.137,0.264c-0.039,0.106-0.063,0.216-0.073,0.327
		c-0.009,0.103-0.014,0.217-0.014,0.339v1.896L839.417,1149.316z"/>
	<path fill="#FFFFFF" d="M848.9,1145.028v-0.617h0.448v0.605L848.9,1145.028z M848.923,1149.316v-3.52h0.408v3.52H848.923z"/>
	<path fill="#FFFFFF" d="M856.096,1149.316v-4.905h0.408v4.892L856.096,1149.316z"/>
	<path fill="#FFFFFF" d="M863.45,1147.651c0,0.178,0.024,0.354,0.073,0.527c0.046,0.158,0.119,0.31,0.221,0.441
		c0.1,0.127,0.228,0.229,0.372,0.3c0.164,0.079,0.344,0.117,0.527,0.112c0.244,0.006,0.487-0.068,0.688-0.212
		c0.193-0.148,0.328-0.359,0.379-0.598h0.455c-0.049,0.162-0.114,0.318-0.196,0.466c-0.082,0.143-0.185,0.268-0.307,0.374
		c-0.128,0.109-0.275,0.192-0.435,0.247c-0.188,0.063-0.387,0.094-0.584,0.09c-0.251,0.006-0.499-0.042-0.729-0.142
		c-0.195-0.09-0.367-0.222-0.504-0.39c-0.134-0.174-0.234-0.373-0.291-0.586c-0.064-0.235-0.097-0.479-0.095-0.723
		c-0.002-0.247,0.036-0.493,0.11-0.728c0.07-0.21,0.176-0.405,0.314-0.577c0.137-0.168,0.309-0.305,0.506-0.4
		c0.211-0.1,0.444-0.149,0.679-0.146c0.438-0.019,0.858,0.167,1.141,0.502c0.303,0.419,0.446,0.933,0.408,1.451L863.45,1147.651z
		 M865.747,1147.311c0.001-0.164-0.024-0.328-0.072-0.484c-0.044-0.146-0.114-0.279-0.21-0.396
		c-0.097-0.112-0.217-0.201-0.351-0.263c-0.151-0.066-0.315-0.1-0.481-0.098c-0.165-0.002-0.33,0.032-0.48,0.104
		c-0.134,0.062-0.254,0.151-0.353,0.262c-0.1,0.118-0.179,0.252-0.234,0.396c-0.06,0.152-0.1,0.313-0.115,0.477L865.747,1147.311z"
		/>
	<path fill="#FFFFFF" d="M846.892,1143.055l-5.005-8.164l-5.039,7.561l-20.492-0.014v-39.164h61.078v39.162l-23.65,0.012
		l-3.014-4.445L846.892,1143.055z M850.843,1135.308l3.771,5.564h21.234v-36.018h-57.909v36.002h18.066l5.938-8.93l5.099,8.328
		L850.843,1135.308z"/>
</g>
</svg>
